<svg xmlns="http://www.w3.org/2000/svg" xmlns:xlink="http://www.w3.org/1999/xlink" width="76.0374" height="63.8131" viewBox="14.422253608703613 20.09999656677246 71.2554931640625 59.80000305175781" preserveAspectRatio="none" fill="#e12323">
	<g transform="matrix(1 0 0 1 0 0)" class="aIptOCySncolors-06d566a4f-b0ae-4670-ba34-264ddd8bcc00">
		<g>
			<path d="M84 46.9c-.3 0-.6-.1-.9-.3L50 23.7 16.9 46.6c-.7.5-1.7.3-2.2-.4-.5-.7-.3-1.7.4-2.2l34-23.6c.6-.4 1.3-.4 1.8 0L85 44c.7.5.9 1.5.4 2.2-.3.5-.8.7-1.4.7z">
			</path>
			<path d="M56.2 79.9H45.5c-.9 0-1.6-.7-1.6-1.6v-9.8h-9.8c-.9 0-1.6-.7-1.6-1.6V56.1c0-.9.7-1.6 1.6-1.6h9.8v-9.8c0-.9.7-1.6 1.6-1.6h10.7c.9 0 1.6.7 1.6 1.6v9.8h9.8c.9 0 1.6.7 1.6 1.6v10.7c0 .9-.7 1.6-1.6 1.6h-9.8v9.8c0 1-.7 1.7-1.6 1.7zm-9.1-3.2h7.5v-9.8c0-.9.7-1.6 1.6-1.6H66v-7.5h-9.8c-.9 0-1.6-.7-1.6-1.6v-9.8h-7.5v9.8c0 .9-.7 1.6-1.6 1.6h-9.8v7.5h9.8c.9 0 1.6.7 1.6 1.6v9.8z">
			</path>
		</g>
	</g>
</svg>
