<svg xmlns="http://www.w3.org/2000/svg" width="76.0374" height="69.8594" preserveAspectRatio="none" viewBox="20 26.5 160 147" fill="#c21107">
	<g transform="matrix(1 0 0 1 0 0)">
		<g>
			<path d="M111.1 173.5H57.6c-1.2 0-2.2-1-2.2-2.2L86.7 28.7c0-1.2 1-2.2 2.2-2.2h53.5c1.2 0 2.2 1 2.2 2.2l-31.3 142.6c0 1.2-1 2.2-2.2 2.2z" data-color="1" class="aIptOCySncolors-06d566a4f-b0ae-4670-ba34-264ddd8bcc00">
			</path>
			<path d="M71 71.1h-8.9l-12.7 57.8h8.9L71 71.1z" data-color="2" class="aIptOCySncolors-06d566a4f-b0ae-4670-ba34-264ddd8bcc00">
			</path>
			<path d="M34.5 128.9h8.6l12.7-57.8h-8.6l-12.7 57.8z" data-color="2" class="aIptOCySncolors-06d566a4f-b0ae-4670-ba34-264ddd8bcc00">
			</path>
			<path d="M40.9 71.1h-6.1c-1.2 0-2.2 1-2.2 2.2L20 126.7c0 1.2 1 2.2 2.2 2.2h6l12.7-57.8z" data-color="2" class="aIptOCySncolors-06d566a4f-b0ae-4670-ba34-264ddd8bcc00">
			</path>
			<path d="M177.8 71.1H77.3l-12.7 57.8h100.7c1.2 0 2.2-1 2.2-2.2L180 73.3c0-1.2-1-2.2-2.2-2.2z" data-color="2" class="aIptOCySncolors-06d566a4f-b0ae-4670-ba34-264ddd8bcc00">
			</path>
		</g>
	</g>
</svg>
